<?xml version="1.0" standalone="no"?><!DOCTYPE svg PUBLIC "-//W3C//DTD SVG 1.1//EN" "http://www.w3.org/Graphics/SVG/1.1/DTD/svg11.dtd"><svg t="1574408452622" class="icon" viewBox="0 0 1024 1024" version="1.1" xmlns="http://www.w3.org/2000/svg" p-id="3054" width="128" height="128" xmlns:xlink="http://www.w3.org/1999/xlink"><defs><style type="text/css"></style></defs><path d="M213.4 298.6c0-70.7 57.3-128 128-128s128 57.3 128 128V896c0 70.7-57.3 128-128 128s-128-57.3-128-128V298.6z m341.4 0c0-70.7 57.3-128 128-128s128 57.3 128 128V896c0 70.7-57.3 128-128 128s-128-57.3-128-128V298.6z" fill="#666666" p-id="3055"></path><path d="M256.1 298.6c0-47.1 38.2-85.3 85.3-85.3 47.1 0 85.3 38.2 85.3 85.3V896c0 47.1-38.2 85.3-85.3 85.3-47.1 0-85.3-38.2-85.3-85.3V298.6z m341.3 0c0-47.1 38.2-85.3 85.3-85.3 47.1 0 85.3 38.2 85.3 85.3V896c0 47.1-38.2 85.3-85.3 85.3-47.1 0-85.3-38.2-85.3-85.3V298.6z" fill="#F5F5F5" p-id="3056"></path><path d="M1024.1 113.7v284.5l-8.6 11.4c-48 63.9-123.3 102.4-204.8 102.4-141.4 0-256-114.6-256-256s114.6-256 256-256c81.5 0 156.7 38.4 204.8 102.4l8.6 11.3zM8.7 102.4c48-64 123.2-102.4 204.7-102.4 141.4 0 256 114.6 256 256s-114.6 256-256 256c-81.5 0-156.7-38.4-204.8-102.4l-8.6-11.4V113.7l8.7-11.3z" fill="#666666" p-id="3057"></path><path d="M981.4 128c-38.9-51.8-100.9-85.3-170.7-85.3-117.8 0-213.3 95.5-213.3 213.3s95.5 213.3 213.3 213.3c69.8 0 131.7-33.5 170.7-85.3V128z m-938.6 0c38.9-51.8 100.9-85.3 170.7-85.3 117.8 0 213.3 95.5 213.3 213.3s-95.5 213.3-213.3 213.3c-69.8 0-131.7-33.5-170.7-85.3V128z" fill="#FEFCEA" p-id="3058"></path><path d="M85.4 213.3h85.3V256h-85.3V213.3z m853.4 0h-85.3V256h85.3V213.3z m-725.4 0H384.1V256H213.4V213.3z m597.4 0H640.1V256h170.7V213.3z" fill="#666666" p-id="3059"></path><path d="M298.8 853.3H384.1v85.3h-85.3v-85.3z m341.3 0h85.3v85.3H640.1v-85.3z" fill="#B3BAC3" p-id="3060"></path></svg>