<?xml version="1.0" standalone="no"?><!DOCTYPE svg PUBLIC "-//W3C//DTD SVG 1.1//EN" "http://www.w3.org/Graphics/SVG/1.1/DTD/svg11.dtd"><svg t="1574409066983" class="icon" viewBox="0 0 1024 1024" version="1.1" xmlns="http://www.w3.org/2000/svg" p-id="3869" xmlns:xlink="http://www.w3.org/1999/xlink" width="128" height="128"><defs><style type="text/css"></style></defs><path d="M751.96416 112.7424h-447.52896a30.72 30.72 0 0 0-30.72 30.72V894.23872a30.72 30.72 0 0 0 30.72 30.72H751.96416a30.72 30.72 0 0 0 30.72-30.72v-750.75584a30.72 30.72 0 0 0-30.72-30.74048zM526.17216 376.19712c10.87488-19.43552 27.42272-31.4368 48.9472-36.70016 2.6624-0.65536 5.40672-0.86016 8.45824-1.3312 0.08192 2.23232 0.22528 4.13696 0.26624 6.06208 0.45056 23.83872-14.9504 55.00928-44.40064 66.70336-6.47168 2.56-13.16864 3.8912-20.15232 3.72736-1.29024-0.02048-1.80224-0.36864-1.92512-1.78176-1.1264-13.2096 2.43712-25.31328 8.8064-36.67968zM649.216 588.86144c-8.21248 22.24128-20.70528 41.96352-35.81952 60.08832a82.5344 82.5344 0 0 1-9.80992 9.66656c-6.9632 5.87776-14.92992 9.40032-24.18688 9.74848a48.08704 48.08704 0 0 1-20.00896-3.64544c-4.68992-1.88416-9.23648-4.01408-13.94688-5.7344-15.33952-5.55008-30.55616-4.83328-45.60896 1.1264-5.44768 2.12992-10.79296 4.5056-16.32256 6.38976a38.6048 38.6048 0 0 1-19.82464 1.7408 38.44096 38.44096 0 0 1-15.872-7.39328 87.49056 87.49056 0 0 1-15.64672-15.48288 211.5584 211.5584 0 0 1-44.25728-91.79136 169.1648 169.1648 0 0 1-3.66592-44.62592c1.08544-18.0224 5.26336-35.20512 14.90944-50.688 12.10368-19.456 29.16352-32.19456 51.63008-37.45792a65.88416 65.88416 0 0 1 39.50592 3.072c6.77888 2.60096 13.57824 5.16096 20.3776 7.70048 6.26688 2.3552 12.51328 2.3552 18.78016-0.04096 6.94272-2.64192 13.88544-5.30432 20.8896-7.86432 7.10656-2.60096 14.39744-4.7104 21.99552-5.34528a82.80064 82.80064 0 0 1 33.15712 4.15744c15.27808 5.12 27.68896 14.15168 37.0688 27.29984l0.7168 1.06496c-23.6544 16.4864-37.10976 38.27712-35.14368 67.74784 1.9456 29.45024 17.83808 49.43872 43.88864 62.38208-0.94208 2.56-1.82272 5.24288-2.80576 7.8848z" p-id="3870"></path></svg>