<?xml version="1.0" standalone="no"?><!DOCTYPE svg PUBLIC "-//W3C//DTD SVG 1.1//EN" "http://www.w3.org/Graphics/SVG/1.1/DTD/svg11.dtd"><svg t="1574409164049" class="icon" viewBox="0 0 1024 1024" version="1.1" xmlns="http://www.w3.org/2000/svg" p-id="4161" xmlns:xlink="http://www.w3.org/1999/xlink" width="128" height="128"><defs><style type="text/css"></style></defs><path d="M701.814634 441.368976h-2.997073c-12.188098 0-22.078439 9.890341-22.078439 22.078439v97.205073c0 12.188098 9.890341 22.078439 22.078439 22.078439h2.997073c12.188098 0 22.078439-9.890341 22.078439-22.078439v-97.205073c0-12.188098-9.890341-22.078439-22.078439-22.078439z" p-id="4162" fill="#d81e06"></path><path d="M823.296 64.536976H200.704c-75.226537 0-136.266927 61.04039-136.266927 136.266926v622.392196c0 75.226537 61.04039 136.266927 136.266927 136.266926H823.196098c75.226537 0 136.266927-61.04039 136.266926-136.266926V200.803902h0.099903c0-75.226537-61.04039-136.266927-136.266927-136.266926zM364.044488 769.948098c-22.078439 16.483902-66.135415 49.651512-104.797659 49.651512 0 0-16.483902 0-5.594536-5.594537 0 0 27.573073-38.562341 22.078439-60.64078-71.729951-38.662244-128.774244-104.797659-117.585171-171.032976 2.297756-41.559415 24.17639-78.323512 47.753366-106.09639v1.298732c0 134.868293 144.558829 248.557268 315.591805 258.747317-45.85522 25.774829-98.004293 39.161756-157.446244 33.667122zM689.326829 698.218146c-10.989268 38.562341 38.562341 99.303024 38.562342 99.303025 10.989268 16.583805-16.483902 10.989268-16.483903 10.989268-60.64078 0-143.36-60.64078-170.933073-88.313756-176.427707 0-319.787707-115.886829-319.787707-253.752195 0-143.36 143.36-259.246829 325.382244-259.246829s325.382244 115.886829 325.382244 259.246829c-0.199805 99.303024-71.929756 187.61678-182.122147 231.773658z" p-id="4163" fill="#d81e06"></path><path d="M573.539902 370.737951H386.222829c-16.483902 0-38.961951 1.998049-38.961951 13.08722v165.438439c0 10.989268 22.478049 33.467317 33.367415 33.467317h10.989268c10.989268 0 26.274341-22.478049 26.274341-33.467317V417.891902h28.971708c10.989268 0 18.182244 10.090146 18.182244 21.079415v110.392195c0 10.989268 9.390829 33.467317 20.380097 33.467317h10.989269c10.989268 0 15.684683-22.478049 15.684682-33.467317V417.891902h39.561366c5.894244 0 7.592585 15.98439 7.592586 21.079415v110.392195c0 10.989268 14.385951 33.467317 30.969756 33.467317h5.594536c16.483902 0 34.166634-22.478049 34.166634-33.467317V411.398244c-0.199805-16.583805-23.477073-40.660293-56.444878-40.660293zM705.111415 370.737951h-2.997074c-12.188098 0-22.078439 9.890341-22.078439 22.078439v2.997073c0 12.188098 9.890341 22.078439 22.078439 22.078439h2.997074c12.188098 0 22.078439-9.890341 22.078439-22.078439v-2.997073c-0.199805-12.188098-9.990244-22.078439-22.078439-22.078439z" p-id="4164" fill="#d81e06"></path></svg>