<?xml version="1.0" standalone="no"?><!DOCTYPE svg PUBLIC "-//W3C//DTD SVG 1.1//EN" "http://www.w3.org/Graphics/SVG/1.1/DTD/svg11.dtd"><svg t="1574409201391" class="icon" viewBox="0 0 1024 1024" version="1.1" xmlns="http://www.w3.org/2000/svg" p-id="4352" xmlns:xlink="http://www.w3.org/1999/xlink" width="128" height="128"><defs><style type="text/css"></style></defs><path d="M806.4 1011.2h-588.8C181.76 1011.2 153.6 983.04 153.6 947.2v-202.24c0-66.56 30.72-128 81.92-168.96l10.24-7.68 7.68 10.24c64 76.8 158.72 122.88 258.56 122.88s194.56-43.52 258.56-122.88l7.68-10.24 10.24 7.68c51.2 40.96 81.92 102.4 81.92 168.96V947.2c0 35.84-28.16 64-64 64z m-563.2-407.04C202.24 640 179.2 691.2 179.2 744.96V947.2c0 20.48 17.92 38.4 38.4 38.4h588.8c20.48 0 38.4-17.92 38.4-38.4v-202.24c0-53.76-23.04-104.96-64-143.36-69.12 76.8-166.4 122.88-268.8 122.88s-202.24-43.52-268.8-120.32z" fill="#979797" p-id="4353"></path><path d="M512 724.48c-197.12 0-358.4-158.72-358.4-355.84S314.88 12.8 512 12.8s358.4 158.72 358.4 355.84-161.28 355.84-358.4 355.84z m0-686.08c-184.32 0-332.8 148.48-332.8 330.24s148.48 330.24 332.8 330.24 332.8-148.48 332.8-330.24S696.32 38.4 512 38.4z" fill="#979797" p-id="4354"></path><path d="M542.72 655.36h-64c-76.8 0-140.8-64-140.8-140.8V166.4c0-76.8 64-140.8 140.8-140.8h64c76.8 0 140.8 64 140.8 140.8v348.16c2.56 76.8-61.44 140.8-140.8 140.8zM481.28 51.2c-64 0-115.2 51.2-115.2 115.2v348.16c0 64 51.2 115.2 115.2 115.2h64c64 0 115.2-51.2 115.2-115.2V166.4c0-64-51.2-115.2-115.2-115.2h-64z" fill="#979797" p-id="4355"></path><path d="M512 496.64c-71.68 0-128-56.32-128-128s56.32-128 128-128 128 56.32 128 128-56.32 128-128 128z m0-230.4c-56.32 0-102.4 46.08-102.4 102.4s46.08 102.4 102.4 102.4 102.4-46.08 102.4-102.4-46.08-102.4-102.4-102.4z" fill="#979797" p-id="4356"></path><path d="M512 437.76c-38.4 0-71.68-30.72-71.68-69.12s30.72-69.12 71.68-69.12 71.68 30.72 71.68 69.12-33.28 69.12-71.68 69.12z m0-112.64c-25.6 0-46.08 20.48-46.08 43.52s20.48 43.52 46.08 43.52 46.08-20.48 46.08-43.52-20.48-43.52-46.08-43.52z" fill="#979797" p-id="4357"></path></svg>